#N canvas 463 44 977 550 10;
#X declare -lib mrpeach;
#X obj 10 19 import mrpeach;
#X obj 64 53 udpreceive 7005;
#X obj 67 82 unpackOSC;
#X obj 67 117 routeOSC /wek/outputs;
#X obj 218 143 unpack f f f f f f f f f f f f f f;
#X obj -46 277 bng 15 250 50 0 empty empty empty 17 7 0 10 -262144
-1 -1;
#X obj 8 269 bng 15 250 50 0 empty empty empty 17 7 0 10 -262144 -1
-1;
#X obj 150 285 bng 15 250 50 0 empty empty empty 17 7 0 10 -262144
-1 -1;
#X obj 204 256 bng 15 250 50 0 empty empty empty 17 7 0 10 -262144
-1 -1;
#X obj 225 307 bng 15 250 50 0 empty empty empty 17 7 0 10 -262144
-1 -1;
#X obj 300 274 bng 15 250 50 0 empty empty empty 17 7 0 10 -262144
-1 -1;
#X obj 336 333 bng 15 250 50 0 empty empty empty 17 7 0 10 -262144
-1 -1;
#X obj 379 268 bng 15 250 50 0 empty empty empty 17 7 0 10 -262144
-1 -1;
#X obj 427 269 bng 15 250 50 0 empty empty empty 17 7 0 10 -262144
-1 -1;
#X obj 682 270 bng 15 250 50 0 empty empty empty 17 7 0 10 -262144
-1 -1;
#X obj 475 271 bng 15 250 50 0 empty empty empty 17 7 0 10 -262144
-1 -1;
#X obj 555 323 bng 15 250 50 0 empty empty empty 17 7 0 10 -262144
-1 -1;
#X obj 604 321 bng 15 250 50 0 empty empty empty 17 7 0 10 -262144
-1 -1;
#X obj 620 270 bng 15 250 50 0 empty empty empty 17 7 0 10 -262144
-1 -1;
#X obj 253 37 cnv 15 100 60 empty empty empty 20 12 0 14 -233017 -66577
0;
#X text 187 467 create window;
#X floatatom -7 196 5 0 0 0 - - -;
#X floatatom 44 197 5 0 0 0 - - -;
#X floatatom 95 200 5 0 0 0 - - -;
#X floatatom 147 202 5 0 0 0 - - -;
#X floatatom 202 204 5 0 0 0 - - -;
#X floatatom 295 193 5 0 0 0 - - -;
#X floatatom 333 192 5 0 0 0 - - -;
#X floatatom 375 193 5 0 0 0 - - -;
#X floatatom 413 194 5 0 0 0 - - -;
#X floatatom 454 195 5 0 0 0 - - -;
#X floatatom 499 195 5 0 0 0 - - -;
#X floatatom 545 195 5 0 0 0 - - -;
#X floatatom 590 193 5 0 0 0 - - -;
#X floatatom 636 192 5 0 0 0 - - -;
#X obj -48 350 gemhead;
#X text 249 19 comment;
#X obj 283 51 cnv 15 100 60 empty empty empty 20 12 0 14 -233017 -66577
0;
#X msg -47 316 open A_uke.jpeg;
#X msg 30 285 open am_uke.jpeg;
#X msg 107 316 open B_uke.jpeg;
#X msg 179 283 open bm_uke.jpeg;
#X msg 213 342 open C_uke.jpeg;
#X msg 272 302 open cm_uke.jpeg;
#X msg 324 370 open D_uke.jpeg;
#X msg 371 338 open dm_uke.jpeg;
#X msg 402 297 open E_uke.jpeg;
#X msg 442 317 open em_uke.jpeg;
#X msg 499 351 open F_uke.jpeg;
#X msg 599 350 open fm_uke.jpeg;
#X msg 608 293 open G_uke.jpeg;
#X msg 658 321 open gm_uke.jpeg;
#X obj 231 442 pix_draw;
#X obj 230 413 pix_image;
#X msg 283 464 destroy;
#N canvas 0 22 450 300 gemwin 0;
#X obj 132 136 gemwin;
#X obj 67 89 outlet;
#X obj 67 10 inlet;
#X obj 67 41 route create;
#X msg 67 70 set destroy;
#X msg 142 68 set create;
#X msg 198 112 destroy;
#X msg 132 112 create \, 1;
#X connect 2 0 3 0;
#X connect 3 0 4 0;
#X connect 3 0 7 0;
#X connect 3 1 5 0;
#X connect 3 1 6 0;
#X connect 4 0 1 0;
#X connect 5 0 1 0;
#X connect 6 0 0 0;
#X connect 7 0 0 0;
#X restore 244 507 pd gemwin;
#X obj 377 236 > 0.5;
#X obj 416 236 > 0.5;
#X obj 458 236 > 0.5;
#X obj 503 235 > 0.5;
#X obj 544 234 > 0.5;
#X obj 594 232 > 0.5;
#X obj 643 233 > 0.5;
#X obj -45 233 > 0.2;
#X obj 12 235 > 0.2;
#X obj 96 232 > 0.2;
#X obj 148 232 > 0.2;
#X obj 222 228 > 0.2;
#X obj 294 234 > 0.2;
#X obj 337 234 > 0.2;
#X connect 1 0 2 0;
#X connect 2 0 3 0;
#X connect 3 0 4 0;
#X connect 4 0 21 0;
#X connect 4 1 22 0;
#X connect 4 2 23 0;
#X connect 4 3 24 0;
#X connect 4 4 25 0;
#X connect 4 5 26 0;
#X connect 4 6 27 0;
#X connect 4 7 28 0;
#X connect 4 8 29 0;
#X connect 4 9 30 0;
#X connect 4 10 31 0;
#X connect 4 11 32 0;
#X connect 4 12 33 0;
#X connect 4 13 34 0;
#X connect 5 0 38 0;
#X connect 6 0 39 0;
#X connect 7 0 40 0;
#X connect 8 0 41 0;
#X connect 9 0 42 0;
#X connect 10 0 43 0;
#X connect 11 0 44 0;
#X connect 12 0 45 0;
#X connect 13 0 46 0;
#X connect 14 0 51 0;
#X connect 15 0 47 0;
#X connect 16 0 48 0;
#X connect 17 0 49 0;
#X connect 18 0 50 0;
#X connect 21 0 63 0;
#X connect 22 0 64 0;
#X connect 23 0 65 0;
#X connect 24 0 66 0;
#X connect 25 0 67 0;
#X connect 26 0 68 0;
#X connect 27 0 69 0;
#X connect 28 0 56 0;
#X connect 29 0 57 0;
#X connect 30 0 58 0;
#X connect 31 0 59 0;
#X connect 32 0 60 0;
#X connect 33 0 61 0;
#X connect 34 0 62 0;
#X connect 35 0 53 0;
#X connect 38 0 53 0;
#X connect 39 0 53 0;
#X connect 40 0 53 0;
#X connect 41 0 53 0;
#X connect 42 0 53 0;
#X connect 43 0 53 0;
#X connect 44 0 53 0;
#X connect 45 0 53 0;
#X connect 46 0 53 0;
#X connect 47 0 53 0;
#X connect 48 0 53 0;
#X connect 49 0 53 0;
#X connect 50 0 53 0;
#X connect 51 0 53 0;
#X connect 53 0 52 0;
#X connect 54 0 55 0;
#X connect 55 0 54 0;
#X connect 56 0 12 0;
#X connect 57 0 13 0;
#X connect 58 0 15 0;
#X connect 59 0 16 0;
#X connect 60 0 17 0;
#X connect 61 0 18 0;
#X connect 62 0 14 0;
#X connect 63 0 5 0;
#X connect 64 0 6 0;
#X connect 65 0 7 0;
#X connect 66 0 8 0;
#X connect 67 0 9 0;
#X connect 68 0 10 0;
#X connect 69 0 11 0;
