#N canvas 177 267 777 535 10;
#X declare -lib mrpeach;
#X obj 16 19 import mrpeach;
#X obj 85 101 unpackOSC;
#X obj 91 177 unpack f f f;
#X floatatom 88 211 5 0 0 0 - - -;
#X floatatom 126 212 5 0 0 0 - - -;
#X floatatom 170 214 5 0 0 0 - - -;
#X obj 29 228 print;
#X obj 85 134 routeOSC /wek/outputs;
#X obj 83 60 udpreceive 7005;
#X obj 245 42 cnv 15 170 250 empty empty empty 20 12 0 14 -228992 -66577
0;
#X obj 310 219 cnv 15 100 60 empty empty empty 20 12 0 14 -195568 -66577
0;
#N canvas 0 22 450 300 gemwin 0;
#X obj 132 136 gemwin;
#X obj 67 89 outlet;
#X obj 67 10 inlet;
#X obj 67 41 route create;
#X msg 67 70 set destroy;
#X msg 142 68 set create;
#X msg 198 112 destroy;
#X msg 132 112 create \, 1;
#X connect 2 0 3 0;
#X connect 3 0 4 0;
#X connect 3 0 7 0;
#X connect 3 1 5 0;
#X connect 3 1 6 0;
#X connect 4 0 1 0;
#X connect 5 0 1 0;
#X connect 6 0 0 0;
#X connect 7 0 0 0;
#X restore 315 258 pd gemwin;
#X msg 315 239 destroy;
#X text 311 218 Create window:;
#X obj 251 75 cnv 15 150 100 empty empty empty 20 12 0 14 -24198 -66577
0;
#X obj 319 154 circle;
#X msg 261 90 draw line;
#X msg 261 111 draw fill;
#X msg 261 133 draw point;
#X obj 319 49 gemhead;
#X floatatom 351 119 5 0 0 2 size - -;
#X text 251 24 comment;
#X obj 90 247 * 4;
#X obj 747 170;
#X connect 1 0 7 0;
#X connect 2 0 3 0;
#X connect 2 1 4 0;
#X connect 2 2 5 0;
#X connect 3 0 22 0;
#X connect 7 0 2 0;
#X connect 7 0 6 0;
#X connect 8 0 1 0;
#X connect 11 0 12 0;
#X connect 12 0 11 0;
#X connect 16 0 15 0;
#X connect 17 0 15 0;
#X connect 18 0 15 0;
#X connect 19 0 15 0;
#X connect 20 0 15 1;
#X connect 22 0 20 0;
