#N canvas 494 47 977 550 10;
#X declare -lib mrpeach;
#X obj 10 19 import mrpeach;
#X obj 64 53 udpreceive 7005;
#X obj 67 82 unpackOSC;
#X obj 67 117 routeOSC /wek/outputs;
#X obj 299 253 bng 15 250 50 0 empty empty empty 17 7 0 10 -262144
-1 -1;
#X text 187 467 create window;
#X floatatom 234 185 5 0 0 0 - - -;
#X floatatom 302 186 5 0 0 0 - - -;
#X floatatom 363 189 5 0 0 0 - - -;
#X obj -48 350 gemhead;
#X msg 283 464 destroy;
#N canvas 0 22 450 300 gemwin 0;
#X obj 132 136 gemwin;
#X obj 67 89 outlet;
#X obj 67 10 inlet;
#X obj 67 41 route create;
#X msg 67 70 set destroy;
#X msg 142 68 set create;
#X msg 198 112 destroy;
#X msg 132 112 create \, 1;
#X connect 2 0 3 0;
#X connect 3 0 4 0;
#X connect 3 0 7 0;
#X connect 3 1 5 0;
#X connect 3 1 6 0;
#X connect 4 0 1 0;
#X connect 5 0 1 0;
#X connect 6 0 0 0;
#X connect 7 0 0 0;
#X restore 244 507 pd gemwin;
#X msg 258 312 open F_uke.jpeg;
#X msg 376 308 open G_uke.jpeg;
#X obj 231 442 pix_draw;
#X obj 454 278 bng 15 250 50 0 empty empty empty 17 7 0 10 -262144
-1 -1;
#X obj 218 143 unpack f f f f;
#X floatatom 153 200 5 0 0 0 - - -;
#X obj -10 269 bng 15 250 50 0 empty empty empty 17 7 0 10 -262144
-1 -1;
#X obj 230 413 pix_image;
#X obj -10 227 threshold 0.7 0.3 0.45;
#X msg 137 300 open C_uke.jpeg;
#X obj 140 262 bng 15 250 50 0 empty empty empty 17 7 0 10 -262144
-1 -1;
#X obj 298 216 threshold 1 0.3 0.2;
#X obj 517 212 threshold 1 0.3 0.2;
#X obj 151 232 threshold 1 0.3 0.2;
#X connect 1 0 2 0;
#X connect 2 0 3 0;
#X connect 3 0 16 0;
#X connect 4 0 12 0;
#X connect 6 0 25 0;
#X connect 7 0 23 0;
#X connect 8 0 24 0;
#X connect 9 0 19 0;
#X connect 10 0 11 0;
#X connect 11 0 10 0;
#X connect 12 0 19 0;
#X connect 13 0 19 0;
#X connect 15 0 13 0;
#X connect 16 0 17 0;
#X connect 16 1 6 0;
#X connect 16 2 7 0;
#X connect 16 3 8 0;
#X connect 17 0 20 0;
#X connect 19 0 14 0;
#X connect 20 0 18 0;
#X connect 21 0 19 0;
#X connect 22 0 21 0;
#X connect 23 0 4 0;
#X connect 24 0 15 0;
#X connect 25 0 22 0;
