#N canvas 582 54 856 545 10;
#X declare -lib mrpeach;
#X obj 26 29 import mrpeach;
#X obj 94 106 routeOSC /wek/outputs;
#X obj 95 142 unpack f f f;
#X floatatom 137 188 5 0 0 0 - - -;
#X obj 397 33 cnv 15 170 250 empty empty empty 20 12 0 14 -228992 -66577
0;
#X obj 403 35 cnv 15 150 100 empty empty empty 20 12 0 14 -24198 -66577
0;
#X obj 404 40 bng 15 250 50 0 empty empty empty 17 7 0 10 -262144 -1
-1;
#X obj 406 113 soundfiler;
#N canvas 0 22 450 278 (subpatch) 0;
#X array array1 417184 float 2;
#X coords 0 1 417184 -1 200 140 1;
#X restore 591 127 graph;
#N canvas 0 22 450 278 (subpatch) 0;
#X array array2 441000 float 2;
#X coords 0 1 441000 -1 200 140 1;
#X restore 592 359 graph;
#X obj 381 323 cnv 15 170 250 empty empty empty 20 12 0 14 -228992
-66577 0;
#X obj 385 337 cnv 15 150 100 empty empty empty 20 12 0 14 -24198 -66577
0;
#X msg 299 42 bang;
#X obj 142 234 > 0.5;
#X obj 93 55 udpreceive 7005;
#X obj 104 78 unpackOSC;
#X obj 289 138 dac~;
#X text 383 291 comment;
#X text 531 96 comment;
#X msg -240 -16;
#X text 3 385 I want Elevatormusic.wav to load when the patch is opened
\, and loop. When the output float 2 from wekinator >.5 \, I want Hallelujah-sound-effect.wav
to play;
#X floatatom 74 194 5 0 0 0 - - -;
#X obj 330 218 loadbang;
#X msg 405 63 read -resize Hallelujah-sound-effect.wav array1;
#X msg 389 353 read -resize Elevatormusic.wav array2;
#X obj 390 403 soundfiler;
#X obj 376 296 bng 15 250 50 0 empty empty empty 17 7 0 10 -262144
-1 -1;
#X obj 295 81 tabplay~ array2;
#X msg 55 255 bang;
#X obj 45 351 dac~;
#X obj 51 294 tabplay~ array2;
#X obj 57 223 > 0.5;
#X obj 230 319 select 1;
#X floatatom 196 252 5 0 0 0 - - -;
#X connect 1 0 2 0;
#X connect 2 0 21 0;
#X connect 2 1 3 0;
#X connect 3 0 13 0;
#X connect 6 0 23 0;
#X connect 12 0 27 0;
#X connect 13 0 33 0;
#X connect 14 0 15 0;
#X connect 15 0 1 0;
#X connect 21 0 31 0;
#X connect 22 0 6 0;
#X connect 22 0 26 0;
#X connect 23 0 7 0;
#X connect 24 0 25 0;
#X connect 26 0 24 0;
#X connect 27 0 16 0;
#X connect 27 0 16 1;
#X connect 28 0 30 0;
#X connect 30 0 29 0;
#X connect 30 0 29 1;
#X connect 31 0 28 0;
#X connect 32 0 12 0;
#X connect 33 0 32 0;
