#N canvas 473 52 1011 645 10;
#X declare -lib mrpeach;
#X obj 15 10 import mrpeach;
#X obj 91 84 unpackOSC;
#X obj 82 51 udpreceive 12000;
#X obj 491 349 bng 15 250 50 0 empty empty empty 17 7 0 10 -262144
-1 -1;
#X obj 496 451 bng 15 250 50 0 empty empty empty 17 7 0 10 -262144
-1 -1;
#N canvas 0 22 450 278 (subpatch) 0;
#X array array1 228745 float 2;
#X coords 0 1 228745 -1 200 140 1;
#X restore 373 33 graph;
#N canvas 0 22 450 278 (subpatch) 0;
#X array array2 234688 float 2;
#X coords 0 1 234688 -1 200 140 1;
#X restore 579 33 graph;
#N canvas 0 22 450 278 (subpatch) 0;
#X array array3 985072 float 2;
#X coords 0 1 985072 -1 200 140 1;
#X restore 782 34 graph;
#X obj 515 419 soundfiler;
#X obj 513 552 soundfiler;
#X obj 15 138 routeOSC /output_1;
#X obj 158 155 routeOSC /output_2;
#X msg 515 388 read -resize TempleBellHuge.wav array2;
#X msg 172 298 bang;
#X obj 141 324 tabplay~ array2;
#X obj 167 359 dac~;
#X obj 503 316 soundfiler;
#X msg 22 299 bang;
#X obj 17 360 dac~;
#X msg 504 284 read -resize TempleBell.wav array1;
#X obj 25 332 tabplay~ array1;
#X obj 500 232 bng 15 250 50 0 empty empty empty 17 7 0 10 -262144
-1 -1;
#X obj 437 192 loadbang;
#X msg 508 491 read -resize Classbell.wav array3;
#X obj 248 125 routeOSC /output_3;
#X msg 311 228 bang;
#X obj 306 289 dac~;
#X obj 280 254 tabplay~ array3;
#X connect 1 0 10 0;
#X connect 1 0 11 0;
#X connect 1 0 24 0;
#X connect 2 0 1 0;
#X connect 3 0 12 0;
#X connect 4 0 23 0;
#X connect 10 0 17 0;
#X connect 11 0 13 0;
#X connect 12 0 8 0;
#X connect 13 0 14 0;
#X connect 14 0 15 0;
#X connect 14 0 15 1;
#X connect 17 0 20 0;
#X connect 19 0 16 0;
#X connect 20 0 18 0;
#X connect 20 0 18 1;
#X connect 21 0 19 0;
#X connect 22 0 21 0;
#X connect 22 0 3 0;
#X connect 22 0 4 0;
#X connect 23 0 9 0;
#X connect 24 0 25 0;
#X connect 25 0 27 0;
#X connect 27 0 26 0;
#X connect 27 0 26 1;
